<?xml version="1.0" standalone="no"?>
<!DOCTYPE svg PUBLIC "-//W3C//DTD SVG 20010904//EN"
 "http://www.w3.org/TR/2001/REC-SVG-20010904/DTD/svg10.dtd">
<svg
  xmlns="http://www.w3.org/2000/svg"
  viewBox="0 0 1024 1024"
  width="100%"
  height="100%"
  preserveAspectRatio="xMidYMid meet"
>

<g fill="currentColor" stroke="none">
<path d="M5032 8199 c-366 -19 -686 -106 -1027 -277 -390 -195 -753 -521
-1006 -905 -34 -51 -69 -103 -79 -117 -9 -14 -47 -81 -83 -150 -170 -322 -291
-734 -319 -1087 l-12 -143 -71 0 c-63 0 -76 -3 -99 -25 -37 -34 -36 -87 3
-126 27 -26 35 -29 99 -29 l69 0 12 -115 c46 -459 220 -918 493 -1302 438
-616 1059 -1003 1783 -1109 170 -25 501 -30 670 -10 536 62 977 240 1355 546
115 93 374 355 432 437 13 17 48 66 78 109 147 206 269 430 339 625 16 46 39
108 51 138 46 117 96 364 111 551 l12 135 74 0 c69 0 76 2 99 28 33 39 31 81
-5 118 -27 26 -36 29 -99 29 l-69 0 -7 117 c-29 517 -222 1049 -533 1471 -87
119 -190 237 -309 354 -445 438 -1039 706 -1628 733 -66 3 -137 7 -156 9 -19
1 -100 -1 -178 -5z m488 -209 c183 -27 480 -101 480 -119 4 -162 3 -351 -2
-351 -4 0 -31 11 -60 23 -154 68 -389 128 -553 142 -44 3 -91 8 -105 11 l-25
4 3 153 c1 83 2 154 2 157 0 7 160 -6 260 -20z m-420 -135 l0 -155 -47 0 c-27
0 -145 -9 -263 -20 -118 -11 -268 -20 -332 -20 -93 0 -120 -3 -132 -16 -24
-23 -24 -508 0 -542 l15 -22 380 0 379 0 0 -70 0 -70 -510 0 -510 0 0 408 0
407 28 13 c270 132 672 238 915 241 l77 1 0 -155z m1094 -61 l46 -26 0 -189 0
-190 -50 28 -50 28 0 188 c0 103 2 187 4 187 2 0 24 -12 50 -26z m301 -169
c121 -78 278 -207 398 -330 346 -350 568 -741 682 -1200 32 -125 68 -325 60
-333 -1 -1 -27 7 -56 19 -41 17 -75 22 -144 23 -49 0 -102 -3 -117 -7 -24 -6
-28 -4 -28 14 0 51 -54 284 -92 394 -131 388 -364 721 -693 993 -49 41 -94 78
-99 83 -15 14 -18 411 -3 402 7 -4 48 -30 92 -58z m-2575 -325 l0 -360 -70 0
-70 0 0 315 0 315 67 45 c37 25 69 45 70 45 2 0 3 -162 3 -360z m1180 85 l0
-145 -309 0 c-239 0 -310 3 -314 13 -2 6 -5 62 -6 123 l-2 110 168 14 c92 7
197 16 233 20 36 4 102 8 148 8 l82 2 0 -145z m305 130 c261 -39 578 -159 775
-293 l55 -37 3 -187 c1 -104 0 -188 -3 -188 -3 0 -58 40 -122 89 -238 180
-503 294 -773 332 l-92 13 3 143 4 143 25 0 c14 0 70 -7 125 -15z m-1785 -325
l0 -250 -215 0 c-179 0 -215 2 -215 14 0 24 175 234 303 364 67 67 123 122
124 122 2 0 3 -112 3 -250z m1767 -135 c99 -19 215 -57 321 -106 l82 -38 0
-190 c0 -125 -4 -191 -10 -191 -6 0 -13 7 -16 15 -12 30 -151 136 -234 180
-47 24 -126 56 -175 70 -49 14 -90 27 -92 29 -2 2 -5 58 -6 125 l-2 121 27 0
c14 0 61 -7 105 -15z m1079 -46 c186 -159 385 -425 490 -655 39 -87 96 -246
120 -337 21 -80 54 -280 47 -290 -2 -4 -22 -16 -44 -28 -22 -11 -85 -49 -141
-85 -56 -36 -106 -68 -112 -70 -7 -3 -12 23 -14 72 -7 184 -70 432 -160 626
-44 96 -128 229 -202 323 l-48 60 -7 218 c-4 136 -4 217 2 217 6 0 36 -23 69
-51z m-472 -226 c69 -49 174 -138 214 -181 l32 -34 0 -157 0 -157 -62 -49
c-34 -28 -80 -73 -103 -102 -22 -28 -42 -52 -45 -52 -3 -1 -11 21 -17 49 -7
27 -28 87 -48 132 l-36 83 1 252 c1 139 4 253 7 253 3 0 28 -17 57 -37z
m-2514 3 c0 -3 -38 -61 -84 -130 -161 -242 -283 -542 -318 -783 l-12 -84 -31
7 c-65 15 -198 7 -254 -14 -30 -12 -57 -19 -59 -17 -8 8 19 155 54 295 59 238
176 527 274 683 l30 47 200 0 c110 0 200 -2 200 -4z m440 -641 l0 -635 -76 0
-76 0 6 31 c3 17 6 303 6 635 l0 604 70 0 70 0 0 -635z m390 -780 l0 -1415
-115 0 -115 0 0 1415 0 1415 115 0 115 0 0 -1415z m450 116 l0 -1300 22 -15
c18 -13 53 -16 170 -16 l148 0 0 -100 0 -100 -310 0 -310 0 0 1415 0 1415 140
0 140 0 0 -1299z m-1140 609 c0 -466 -3 -580 -13 -580 -7 0 -73 39 -147 86
-74 47 -156 97 -182 110 -27 13 -48 31 -48 39 0 74 120 513 150 549 5 8 20 38
33 68 12 29 36 75 52 101 40 64 144 207 150 207 3 0 5 -261 5 -580z m1530 556
c120 -5 195 -23 280 -66 220 -112 368 -314 431 -588 17 -75 21 -135 26 -437 8
-553 -10 -696 -114 -884 -51 -92 -178 -217 -269 -264 -112 -58 -166 -68 -376
-74 l-188 -6 0 1165 0 1165 48 -3 c26 -2 99 -6 162 -8z m1318 -415 c106 -203
156 -381 178 -638 l7 -83 -125 0 -125 0 -6 263 c-9 348 -9 577 1 577 4 0 35
-54 70 -119z m-228 -771 c0 -360 -3 -570 -9 -570 -14 0 -79 69 -108 114 -14
21 -36 68 -50 104 -24 66 -24 67 -21 361 4 334 7 351 80 451 49 65 89 110 100
110 4 0 8 -256 8 -570z m-3131 142 c52 -21 207 -105 264 -145 26 -18 27 -21
13 -36 -53 -52 -280 -167 -361 -182 -89 -17 -196 -6 -249 25 -37 22 -76 63
-76 81 0 10 160 5 203 -7 38 -10 49 -9 83 8 69 34 81 104 26 159 -24 24 -31
26 -77 20 -27 -3 -92 -8 -142 -11 -75 -4 -93 -3 -93 8 0 21 72 87 106 98 52
17 243 5 303 -18z m4434 12 c35 -18 107 -83 107 -97 0 -9 -166 -3 -236 8 -37
6 -45 3 -75 -23 -46 -41 -47 -97 -4 -142 28 -29 34 -31 75 -25 90 13 240 17
240 6 0 -23 -63 -81 -106 -97 -59 -22 -196 -15 -275 15 -44 17 -280 149 -298
167 -9 9 27 37 122 93 152 90 210 109 335 110 58 1 93 -4 115 -15z m-3925
-517 l2 -247 -168 0 -169 0 -17 68 c-14 59 -38 215 -33 218 1 0 36 19 77 42
41 23 120 70 175 106 55 35 107 63 115 62 13 -1 15 -38 18 -249z m302 -447 l0
-700 -70 0 -70 0 0 699 0 698 70 2 70 1 0 -700z m2723 693 c7 -12 -10 -162
-28 -246 -19 -90 -68 -244 -97 -301 -36 -72 -112 -196 -119 -196 -8 0 -11 729
-3 742 7 10 241 10 247 1z m277 -85 c30 -19 89 -54 130 -78 41 -24 76 -45 78
-46 5 -3 -39 -233 -49 -261 -8 -23 -11 -23 -180 -23 l-171 0 5 23 c2 12 16 67
30 122 14 55 31 138 37 185 6 47 14 100 16 119 l5 33 22 -19 c12 -11 47 -35
77 -55z m-4165 -172 c49 -26 155 -38 231 -28 38 5 71 8 73 6 1 -1 10 -40 17
-86 28 -159 114 -398 191 -530 18 -31 33 -59 33 -62 0 -3 -78 -6 -173 -6
l-174 0 -36 78 c-72 156 -157 428 -191 610 -6 37 -7 37 29 18z m4870 -38 c-26
-164 -96 -403 -166 -567 l-42 -101 -180 0 c-98 0 -177 3 -175 8 2 4 29 59 60
122 74 152 143 367 164 512 l6 48 42 -8 c65 -11 197 -6 241 11 57 21 57 21 50
-25z m-1557 -230 c14 -17 59 -55 99 -85 l73 -54 0 -151 0 -152 -52 -49 c-56
-52 -229 -177 -246 -177 -5 0 -10 81 -11 205 l-2 205 46 132 c25 73 47 139 50
146 7 18 14 15 43 -20z m-2448 -360 l0 -253 -51 70 c-63 87 -148 237 -194 345
-19 45 -35 84 -35 86 0 2 63 4 140 4 l140 0 0 -252z m3395 230 c-9 -29 -87
-198 -91 -198 -2 0 -38 14 -81 31 -43 17 -109 42 -148 56 -38 14 -74 29 -78
33 -5 4 6 28 23 54 l31 46 175 0 175 0 -6 -22z m-212 -317 c20 -7 37 -15 37
-17 0 -9 -85 -120 -149 -194 -74 -86 -141 -153 -229 -228 l-62 -54 0 231 c0
178 3 232 13 238 7 4 24 24 37 43 13 19 36 49 52 66 l29 31 117 -52 c64 -29
134 -58 155 -64z m-1013 -145 l0 -164 -66 -26 c-110 -44 -252 -76 -366 -83
l-108 -6 4 89 c2 49 4 96 5 105 1 12 16 18 62 23 128 13 341 111 421 193 18
18 36 33 40 33 4 0 8 -74 8 -164z m-2341 -72 c35 -43 85 -102 112 -131 27 -28
49 -57 49 -62 0 -8 -64 -11 -194 -11 l-194 0 -49 68 c-62 87 -133 195 -133
204 0 6 288 16 335 12 6 0 39 -36 74 -80z m3854 16 c-140 -226 -352 -468 -564
-645 -101 -85 -327 -240 -336 -231 -3 2 -5 89 -4 192 0 153 3 189 15 196 116
65 363 298 481 455 l70 93 188 0 187 0 -37 -60z m-1085 -402 c-43 -34 -303
-157 -396 -187 -141 -46 -303 -79 -437 -90 -66 -5 -123 -7 -127 -5 -5 3 -7 70
-6 148 l3 143 102 6 c259 16 493 100 741 267 67 44 125 86 129 93 4 6 9 -71
11 -173 2 -182 2 -185 -20 -202z m-2598 -109 l0 -131 -69 62 c-38 34 -97 93
-131 131 l-62 69 131 0 131 0 0 -131z m300 -105 l0 -236 -27 17 c-16 10 -47
32 -70 49 l-42 31 -1 188 0 187 70 0 70 0 0 -236z m378 226 c9 0 12 -48 12
-208 0 -186 2 -211 18 -224 14 -13 76 -17 387 -23 203 -4 373 -9 377 -11 5 -3
8 -79 8 -170 l0 -164 -34 0 c-65 0 -311 31 -410 51 -183 38 -359 98 -538 185
l-38 18 0 275 0 276 102 -2 c57 -1 109 -3 116 -3z m802 -150 l0 -149 -302 5
c-167 3 -309 8 -317 10 -10 3 -12 31 -8 142 3 75 6 138 6 140 1 1 141 2 311 2
l310 0 0 -150z m1140 -243 l0 -183 -45 -22 c-25 -12 -48 -22 -50 -22 -3 0 -5
82 -5 183 l0 183 43 21 c23 12 45 22 50 22 4 1 7 -81 7 -182z m-240 -104 l0
-178 -98 -27 c-53 -16 -127 -35 -163 -43 -85 -19 -365 -55 -429 -55 l-50 0 0
170 0 170 58 0 c159 1 400 45 572 105 52 18 98 34 103 34 4 1 7 -79 7 -176z"/>
<path d="M3552 2358 c-78 -17 -142 -102 -142 -188 1 -35 32 -100 64 -132 109
-107 306 -19 306 137 0 83 -59 163 -138 185 -20 5 -39 9 -42 9 -3 -1 -24 -5
-48 -11z m110 -115 c62 -59 17 -163 -70 -163 -33 0 -45 6 -66 31 -79 94 47
217 136 132z"/>
<path d="M5164 2360 c-157 -37 -199 -230 -73 -332 61 -49 152 -50 209 -2 35
30 38 54 10 79 -18 16 -20 16 -53 -4 -61 -38 -125 -20 -146 41 -16 46 -14 63
16 98 24 29 30 31 72 27 25 -3 60 -9 78 -12 28 -6 34 -4 44 19 15 32 1 52 -56
77 -43 20 -53 21 -101 9z"/>
<path d="M3070 2349 c-61 -24 -110 -101 -110 -171 0 -29 10 -60 30 -94 52 -92
156 -119 244 -65 38 24 45 45 22 77 -13 17 -17 18 -48 5 -67 -27 -95 -26 -128
7 -42 42 -42 97 -1 136 31 29 43 30 137 11 62 -13 70 49 11 86 -35 21 -114 25
-157 8z"/>
<path d="M3947 2353 c-4 -3 -7 -80 -7 -169 0 -199 -3 -195 134 -189 93 4 106
11 106 51 0 33 -20 43 -90 46 l-65 3 -3 119 c-1 67 -7 126 -14 133 -11 14 -50
18 -61 6z"/>
<path d="M4316 2344 c-3 -9 -9 -83 -13 -164 -6 -142 -5 -148 16 -169 19 -19
28 -21 109 -15 112 8 149 36 104 77 -13 12 -37 17 -80 17 l-62 0 0 123 c0 82
-4 127 -12 135 -17 17 -55 15 -62 -4z"/>
<path d="M4672 2348 c-8 -8 -12 -60 -12 -169 0 -195 -3 -190 134 -182 95 6
116 14 116 43 0 36 -34 52 -102 48 -58 -3 -63 -1 -66 18 -3 20 3 22 58 26 65
5 84 18 74 53 -9 28 -8 28 -69 33 -50 4 -55 7 -55 28 0 23 3 24 64 24 84 0
111 23 86 71 -10 17 -22 19 -113 19 -67 0 -107 -4 -115 -12z"/>
<path d="M5437 2336 c-22 -34 0 -64 51 -68 l37 -3 5 -128 c5 -128 11 -146 46
-147 28 0 34 27 34 152 l0 128 26 0 c38 0 64 18 64 43 0 41 -17 47 -136 47
-106 0 -112 -1 -127 -24z"/>
<path d="M5794 2352 c-35 -24 -14 -75 36 -85 l30 -6 0 -120 c0 -95 3 -123 16
-135 20 -20 38 -20 55 0 9 11 12 49 10 139 l-2 124 42 3 c51 4 68 25 51 62
-11 26 -13 26 -119 26 -60 0 -113 -4 -119 -8z"/>
<path d="M6140 2339 c-7 -13 -10 -74 -8 -170 3 -135 5 -152 22 -165 25 -18 31
-18 50 2 13 13 16 42 16 165 0 85 -5 159 -10 170 -14 26 -56 25 -70 -2z"/>
<path d="M6450 2341 c-85 -45 -122 -155 -80 -243 46 -98 149 -134 246 -88 140
68 138 258 -3 338 -34 18 -123 15 -163 -7z m154 -102 c36 -43 35 -91 -3 -130
-22 -21 -39 -29 -66 -29 -51 0 -95 44 -95 95 0 86 110 129 164 64z"/>
<path d="M6855 2338 c-3 -13 -4 -93 -3 -178 l3 -155 28 -9 c40 -14 48 0 54 94
l6 83 21 -29 c49 -67 128 -154 141 -154 7 0 21 7 29 16 13 13 16 42 16 159 0
163 -7 195 -45 195 -33 0 -45 -31 -45 -118 l-1 -67 -36 40 c-19 22 -53 64 -74
93 -44 58 -84 71 -94 30z"/>
<path d="M7322 2340 c-34 -21 -52 -54 -52 -97 0 -31 56 -89 96 -99 57 -14 72
-46 30 -65 -19 -9 -29 -8 -47 5 -29 20 -68 21 -75 1 -18 -47 37 -95 108 -95
34 0 93 30 115 59 7 9 13 37 13 63 0 41 -4 50 -31 70 -16 12 -49 30 -72 38
-30 11 -42 21 -42 35 0 21 21 24 77 10 19 -5 32 -2 43 8 23 24 18 45 -17 67
-42 26 -104 26 -146 0z"/>
</g>
</svg>
